<svg viewBox="0 0 22 6" xmlns="http://www.w3.org/2000/svg" xmlns:xlink="http://www.w3.org/1999/xlink"><linearGradient id="a" x1=".00389%" x2="100.032232%" y1="49.997619%" y2="49.997619%"><stop offset="0" stop-opacity=".1"/><stop offset="1" stop-opacity=".2"/></linearGradient><path d="m19.6976431 15.9665985h-18.36533634c-.71212528 0-1.31180973-.5809443-1.31180973-1.3118097v-13.26801851c0-.71212528.58094431-1.31180973 1.31180973-1.31180973h18.36533634c.7121253 0 1.3118098.58094431 1.3118098 1.31180973v13.26801851c0 .7308654-.5809444 1.3118097-1.3118098 1.3118097z" fill="#e3e3e3"/><path d="m2.6441165 15.9665985 7.8521183-6.31542687.0562205-.33732248-8.09574018-5.82818327-.01874014 12.19983052z" fill="#231f20" opacity=".1"/><path d="m1.33230676 15.9665985c-.73086542 0-1.31180973-.5809443-1.31180973-1.3118097v-13.28675865c0-.73086542.58094431-.86204639 1.31180973-.86204639.73086543 0 1.31180974.14992111 1.31180974.86204639v14.59856835z" fill="#d54b3d"/><path d="m1.33230676.69338515c.93700696 0 1.12440836.28110208 1.12440836.674645v14.41116695h-1.12440836c-.61842458 0-1.12440834-.5059837-1.12440834-1.1244083v-13.28675865c0-.41228306.18740139-.674645 1.12440834-.674645zm0-.18740139c-.73086542 0-1.31180973.14992111-1.31180973.86204639v13.28675865c0 .7308654.58094431 1.3118097 1.31180973 1.3118097h1.31180974v-14.59856835c0-.73086542-.58094431-.86204639-1.31180974-.86204639z" fill="#d72b27"/><path d="m19.6976431 15.9665985h-1.3118097v-14.63604862c0-.73086543.5809442-.82456612 1.3118097-.82456612.7308654 0 1.3118098.09370069 1.3118098.82456612v13.34297902c0 .7121253-.5809444 1.2930696-1.3118098 1.2930696z" fill="#d54b3d"/><path d="m19.6976431.69338515c.8433063 0 1.1244084.16866125 1.1244084.63716473v13.34297902c0 .6184247-.5059838 1.1244084-1.1244084 1.1244084h-1.1244083v-14.46738742c0-.48724362.281102-.63716473 1.1244083-.63716473zm0-.18740139c-.7308655 0-1.3118097.09370069-1.3118097.82456612v14.65478872h1.3118097c.7308654 0 1.3118098-.5809442 1.3118098-1.3118097v-13.34297902c0-.73086543-.5809444-.82456612-1.3118098-.82456612z" fill="#d72b27"/><path d="m14.0756014 15.9665985-13.94530869-14.05362906.73351058.29836698 9.70739211 6.99007191 10.4382578-7.65415364-.0000003 13.12627421c0 .7121253-.5809444 1.2930696-1.3118098 1.2930696z" fill="url(#a)"/><path d="m10.4962348 9.65117163-9.9135336-7.1962134c-.58094431-.4310232-.74960557-1.25558932-.31858236-1.83653364.4310232-.58094431 1.27432946-.71212529 1.87401391-.28110208l8.37684215 6.09054521 8.4330626-6.16550577c.5809444-.4310232 1.4055105-.29984223 1.8365337.29984222.4310232.58094432.2998422 1.40551044-.2998422 1.83653364z" fill="#d54b3d"/><path d="m19.6976431.18740139c.3560626 0 .6933852.16866125.9182668.46850348.3560626.50598376.2436218 1.1993689-.2436218 1.57417168l-9.8760533 7.19621343-9.80109276-7.12125287c-.50598376-.37480278-.63716473-1.08692806-.28110209-1.57417168.20614153-.28110209.56220417-.46850348.93700695-.46850348.24362182 0 .48724362.07496056.67464502.22488167l8.35810208 6.07180507.1124408.07496056.1124408-.07496056 8.4143225-6.16550577c.2061415-.13118097.4310232-.20614153.674645-.20614153zm0-.18740139c-.2623619 0-.543464.07496056-.7683457.24362181l-8.4330626 6.16550577-8.37684219-6.09054522c-.22488167-.16866125-.50598376-.2436218-.78708585-.2436218-.41228306 0-.82456611.18740139-1.08692806.54346403-.41228307.58094432-.24362181 1.40551044.3373225 1.83653364l9.9135336 7.21495352 9.969754-7.27117394c.5809443-.4310232.7121253-1.23684918.2998422-1.83653364-.2623619-.37480278-.6559048-.56220417-1.0681879-.56220417z" fill="#d72b27"/></svg>